<svg width="32" height="32" viewBox="0 0 32 32" fill="none" xmlns="http://www.w3.org/2000/svg">
<path d="M3.06714 15.0961V21.1189C3.06714 26.1353 7.1337 30.2019 12.1501 30.2019C17.1664 30.2019 21.233 26.1353 21.233 21.1189V10.2286L16.6915 11.4455V21.1189C16.6915 23.6271 14.6582 25.6604 12.1501 25.6604C9.64189 25.6604 7.60861 23.6271 7.60861 21.1189V13.8793L3.06714 15.0961Z" fill="#D996F7"/>
<path d="M27.9999 16.8973L23.4585 18.1142V10.881C23.4585 8.37282 21.4252 6.33955 18.917 6.33955C16.4088 6.33955 14.3756 8.37282 14.3756 10.881V20.5479L9.83411 21.7648V10.881C9.83411 5.86467 13.9007 1.7981 18.917 1.7981C23.9334 1.7981 27.9999 5.86467 27.9999 10.881V16.8973Z" fill="#A18B2F"/>
</svg>
